<svg width="24" height="24" viewBox="0 0 24 24" fill="none" xmlns="http://www.w3.org/2000/svg">
<path fill-rule="evenodd" clip-rule="evenodd" d="M21.125 7.50543C21.4662 5.78323 22.3035 0.896914 21 0.105423C19.789 -0.629923 16.3514 2.66706 14.7896 4.27163C13.8944 4.09404 12.9604 4.00002 12 4.00002C11.0396 4.00002 10.1056 4.09403 9.21052 4.27161C7.64866 2.66704 4.21108 -0.629921 3.00008 0.105423C1.69664 0.896901 2.5339 5.78308 2.87503 7.50535C1.08248 9.25266 0 11.521 0 14C0 19.5229 3 24 12 24C21 24 24 19.5229 24 14C24 11.521 22.9176 9.25273 21.125 7.50543Z" fill="#FF9F1C"/>
</svg>
