<svg width="14" height="14" viewBox="0 0 14 14" fill="none" xmlns="http://www.w3.org/2000/svg">
<path d="M12.25 4.95833C12.25 2.22424 10.0257 0 7.29165 0C4.55756 0 2.33331 2.22424 2.33331 4.95833C2.33331 7.49461 4.24866 9.58911 6.70831 9.87935V11.0833H5.54165C5.21965 11.0833 4.95831 11.3447 4.95831 11.6667C4.95831 11.9887 5.21965 12.25 5.54165 12.25H6.70831V13.4167C6.70831 13.7387 6.96965 14 7.29165 14C7.61365 14 7.87498 13.7387 7.87498 13.4167V12.25H9.04165C9.36365 12.25 9.62498 11.9887 9.62498 11.6667C9.62498 11.3447 9.36365 11.0833 9.04165 11.0833H7.87498V9.87935C10.3346 9.58911 12.25 7.49461 12.25 4.95833ZM3.49998 4.95833C3.49998 2.86768 5.20099 1.16667 7.29165 1.16667C9.3823 1.16667 11.0833 2.86768 11.0833 4.95833C11.0833 7.04899 9.3823 8.75 7.29165 8.75C5.20099 8.75 3.49998 7.04899 3.49998 4.95833Z" fill="#6D6A75"/>
</svg>
